<svg width="667" height="190" viewBox="0 0 667 190" fill="none" xmlns="http://www.w3.org/2000/svg">
<path d="M0.3 -23H33.3V157H87.6V187H0.3V-23ZM103.425 -23H144.825L176.925 102.7H177.525V-23H206.925V187H173.025L133.425 33.7H132.825V187H103.425V-23ZM231.452 -23H318.752V6.99999H264.452V65.5H307.052V95.5H264.452V187H231.452V-23ZM382.277 190C366.077 190 353.677 185.4 345.077 176.2C336.477 167 332.177 154 332.177 137.2V26.8C332.177 9.99999 336.477 -3.00001 345.077 -12.2C353.677 -21.4 366.077 -26 382.277 -26C398.477 -26 410.877 -21.4 419.477 -12.2C428.077 -3.00001 432.377 9.99999 432.377 26.8V137.2C432.377 154 428.077 167 419.477 176.2C410.877 185.4 398.477 190 382.277 190ZM382.277 160C393.677 160 399.377 153.1 399.377 139.3V24.7C399.377 10.9 393.677 4 382.277 4C370.877 4 365.177 10.9 365.177 24.7V139.3C365.177 153.1 370.877 160 382.277 160ZM502.395 190C486.195 190 473.795 185.4 465.195 176.2C456.595 167 452.295 154 452.295 137.2V26.8C452.295 9.99999 456.595 -3.00001 465.195 -12.2C473.795 -21.4 486.195 -26 502.395 -26C518.595 -26 530.995 -21.4 539.595 -12.2C548.195 -3.00001 552.495 9.99999 552.495 26.8V137.2C552.495 154 548.195 167 539.595 176.2C530.995 185.4 518.595 190 502.395 190ZM502.395 160C513.795 160 519.495 153.1 519.495 139.3V24.7C519.495 10.9 513.795 4 502.395 4C490.995 4 485.295 10.9 485.295 24.7V139.3C485.295 153.1 490.995 160 502.395 160ZM599.44 6.99999H564.94V-23H666.94V6.99999H632.44V187H599.44V6.99999Z" fill="url(#paint0_linear_42_6)"/>
<defs>
<linearGradient id="paint0_linear_42_6" x1="528.445" y1="41.5" x2="-25.7476" y2="112.172" gradientUnits="userSpaceOnUse">
<stop stop-color="white"/>
<stop offset="1" stop-color="#0D0C14"/>
</linearGradient>
</defs>
</svg>
